# xmcd
#
# Track frame offsets: 
#        150
#        62012
#        158831
#        181885
#        210146
#        243437
#        278071
#        308013
#
# Disc length: 4513 seconds
#
# Revision: 1
# Processed by: cddbd v1.5.2PL0 Copyright (c) Steve Scherf et al.
# Submitted via: ExactAudioCopy v1.1
#
DISCID=5f119f08
DTITLE=Dexter Gordon - West Coast Jazz Concert - The Resurgence Of Dex
DTITLE=ter Gordon
DYEAR=1947
DGENRE=Jazz
TTITLE0=Blow-Blow-Blow (live) (mono)
TTITLE1=Cherry Koke (Jeronimo) (live) (mono)
TTITLE2=Home Run (stereo)
TTITLE3=Dolo (stereo)
TTITLE4=Lovely Lisa (stereo)
TTITLE5=Affair In Havana (stereo)
TTITLE6=Jodi (stereo)
TTITLE7=Field Day (stereo)
EXTD=YEAR: 1947
EXTT0=
EXTT1=
EXTT2=
EXTT3=
EXTT4=
EXTT5=
EXTT6=
EXTT7=
PLAYORDER=
